<?xml version="1.0" encoding="UTF-8" standalone="no"?>
<!DOCTYPE svg PUBLIC "-//W3C//DTD SVG 1.0//EN" "http://www.w3.org/TR/2001/PR-SVG-20010719/DTD/svg10.dtd">
<svg width="44cm" height="28cm" viewBox="293 161 862 552" xmlns="http://www.w3.org/2000/svg" xmlns:xlink="http://www.w3.org/1999/xlink">
  <text font-size="12.8" style="fill: #000000;text-anchor:start;font-family:sans-serif;font-style:normal;font-weight:700" x="576" y="173">
    <tspan x="576" y="173">One-Stop-Shop, EU-Regelung</tspan>
  </text>
  <text font-size="12.8" style="fill: #000000;text-anchor:start;font-family:sans-serif;font-style:normal;font-weight:normal" x="699" y="168">
    <tspan x="699" y="168"></tspan>
  </text>
  <g>
    <polygon style="fill: #ffffff" points="608.018,236 764,236 733.79,319 577.809,319 "/>
    <polygon style="fill: none; fill-opacity:0; stroke-width: 2; stroke: #000000" points="608.018,236 764,236 733.79,319 577.809,319 "/>
    <text font-size="12.7998" style="fill: #000000;text-anchor:middle;font-family:sans-serif;font-style:normal;font-weight:normal" x="670.904" y="281.4">
      <tspan x="670.904" y="281.4">shipping address</tspan>
    </text>
  </g>
  <g>
    <polygon style="fill: #ffffff" points="661.393,371.105 730.152,431.947 661.393,492.789 592.635,431.947 "/>
    <polygon style="fill: none; fill-opacity:0; stroke-width: 2; stroke: #000000" points="661.393,371.105 730.152,431.947 661.393,492.789 592.635,431.947 "/>
    <text font-size="12.7998" style="fill: #000000;text-anchor:middle;font-family:sans-serif;font-style:normal;font-weight:normal" x="661.393" y="435.847">
      <tspan x="661.393" y="435.847">country != IT</tspan>
    </text>
  </g>
  <g>
    <line style="fill: none; fill-opacity:0; stroke-width: 2; stroke: #000000" x1="730.152" y1="431.947" x2="840.267" y2="429.239"/>
    <polygon style="fill: #000000" points="847.765,429.055 837.891,434.299 840.267,429.239 837.645,424.302 "/>
    <polygon style="fill: none; fill-opacity:0; stroke-width: 2; stroke: #000000" points="847.765,429.055 837.891,434.299 840.267,429.239 837.645,424.302 "/>
  </g>
  <g>
    <rect style="fill: #ffffff" x="850" y="398" width="130" height="64.75"/>
    <rect style="fill: none; fill-opacity:0; stroke-width: 2; stroke: #000000" x="850" y="398" width="130" height="64.75"/>
    <text font-size="12.7998" style="fill: #000000;text-anchor:middle;font-family:sans-serif;font-style:normal;font-weight:normal" x="915" y="434.275">
      <tspan x="915" y="434.275">load Taxrates</tspan>
    </text>
  </g>
  <g>
    <g>
      <rect style="fill: #ffffff" x="794.17" y="542.152" width="360" height="169"/>
      <rect style="fill: none; fill-opacity:0; stroke-width: 2; stroke-dasharray: 4; stroke: #0000ff" x="794.17" y="542.152" width="360" height="169"/>
      <text font-size="12.8" style="fill: #000000;text-anchor:middle;font-family:sans-serif;font-style:normal;font-weight:normal" x="974.17" y="630.552">
        <tspan x="974.17" y="630.552"></tspan>
      </text>
    </g>
    <g>
      <g>
        <rect style="fill: #2278cd" x="1001.57" y="538.55" width="6.87751" height="6.87751"/>
        <rect style="fill: none; fill-opacity:0; stroke-width: 1; stroke: #000000" x="1001.57" y="538.55" width="6.87751" height="6.87751"/>
      </g>
      <g>
        <rect style="fill: #22a5cd" x="1008.43" y="538.58" width="6.87751" height="6.87751"/>
        <rect style="fill: none; fill-opacity:0; stroke-width: 1; stroke: #000000" x="1008.43" y="538.58" width="6.87751" height="6.87751"/>
      </g>
      <g>
        <rect style="fill: #11c3f9" x="1015.36" y="538.58" width="6.87751" height="6.87751"/>
        <rect style="fill: none; fill-opacity:0; stroke-width: 1; stroke: #000000" x="1015.36" y="538.58" width="6.87751" height="6.87751"/>
      </g>
    </g>
    <g>
      <g>
        <rect style="fill: #2278cd" x="784" y="616.02" width="6.87751" height="6.87751"/>
        <rect style="fill: none; fill-opacity:0; stroke-width: 1; stroke: #000000" x="784" y="616.02" width="6.87751" height="6.87751"/>
      </g>
      <g>
        <rect style="fill: #22a5cd" x="790.868" y="616.05" width="6.87751" height="6.87751"/>
        <rect style="fill: none; fill-opacity:0; stroke-width: 1; stroke: #000000" x="790.868" y="616.05" width="6.87751" height="6.87751"/>
      </g>
      <g>
        <rect style="fill: #11c3f9" x="797.796" y="616.05" width="6.87751" height="6.87751"/>
        <rect style="fill: none; fill-opacity:0; stroke-width: 1; stroke: #000000" x="797.796" y="616.05" width="6.87751" height="6.87751"/>
      </g>
    </g>
  </g>
  <g>
    <rect style="fill: #ffffff" x="865.063" y="588.75" width="217.875" height="70"/>
    <rect style="fill: none; fill-opacity:0; stroke-width: 2; stroke: #000000" x="865.063" y="588.75" width="217.875" height="70"/>
    <line style="fill: none; fill-opacity:0; stroke-width: 2; stroke: #000000" x1="886.85" y1="588.75" x2="886.85" y2="658.75"/>
    <line style="fill: none; fill-opacity:0; stroke-width: 2; stroke: #000000" x1="1061.15" y1="588.75" x2="1061.15" y2="658.75"/>
    <text font-size="12.7998" style="fill: #000000;text-anchor:middle;font-family:sans-serif;font-style:normal;font-weight:normal" x="974" y="611.75">
      <tspan x="974" y="611.75">load order products</tspan>
      <tspan x="974" y="627.75">assing tax rate by country</tspan>
      <tspan x="974" y="643.75">calc price add new vat</tspan>
    </text>
  </g>
  <g>
    <line style="fill: none; fill-opacity:0; stroke-width: 2; stroke: #000000" x1="784" y1="619.459" x2="745.093" y2="621.832"/>
    <polygon style="fill: #000000" points="737.607,622.289 747.284,616.689 745.093,621.832 747.893,626.671 "/>
    <polygon style="fill: none; fill-opacity:0; stroke-width: 2; stroke: #000000" points="737.607,622.289 747.284,616.689 745.093,621.832 747.893,626.671 "/>
  </g>
  <g>
    <rect style="fill: #ffffff" x="585.625" y="590.05" width="149.75" height="64.75"/>
    <rect style="fill: none; fill-opacity:0; stroke-width: 2; stroke: #000000" x="585.625" y="590.05" width="149.75" height="64.75"/>
    <text font-size="12.7998" style="fill: #000000;text-anchor:middle;font-family:sans-serif;font-style:normal;font-weight:normal" x="660.5" y="626.325">
      <tspan x="660.5" y="626.325">calc new order total</tspan>
    </text>
  </g>
  <g>
    <rect style="fill: #ffffff" x="370.5" y="590.05" width="149.75" height="64.75"/>
    <rect style="fill: none; fill-opacity:0; stroke-width: 2; stroke: #000000" x="370.5" y="590.05" width="149.75" height="64.75"/>
    <text font-size="12.7998" style="fill: #000000;text-anchor:middle;font-family:sans-serif;font-style:normal;font-weight:normal" x="445.375" y="626.325">
      <tspan x="445.375" y="626.325">export wawi</tspan>
    </text>
  </g>
  <g>
    <line style="fill: none; fill-opacity:0; stroke-width: 2; stroke: #000000" x1="585.625" y1="622.425" x2="529.986" y2="622.425"/>
    <polygon style="fill: #000000" points="522.486,622.425 532.486,617.425 529.986,622.425 532.486,627.425 "/>
    <polygon style="fill: none; fill-opacity:0; stroke-width: 2; stroke: #000000" points="522.486,622.425 532.486,617.425 529.986,622.425 532.486,627.425 "/>
  </g>
  <g>
    <line style="fill: none; fill-opacity:0; stroke-width: 2; stroke: #000000" x1="592.635" y1="431.947" x2="452.011" y2="582.926"/>
    <polygon style="fill: #000000" points="446.899,588.414 450.056,577.688 452.011,582.926 457.373,584.504 "/>
    <polygon style="fill: none; fill-opacity:0; stroke-width: 2; stroke: #000000" points="446.899,588.414 450.056,577.688 452.011,582.926 457.373,584.504 "/>
  </g>
  <g>
    <line style="fill: none; fill-opacity:0; stroke-width: 2; stroke: #000000" x1="915" y1="462.75" x2="1004.2" y2="532.579"/>
    <polygon style="fill: #000000" points="1010.11,537.202 999.154,534.975 1004.2,532.579 1005.32,527.101 "/>
    <polygon style="fill: none; fill-opacity:0; stroke-width: 2; stroke: #000000" points="1010.11,537.202 999.154,534.975 1004.2,532.579 1005.32,527.101 "/>
  </g>
  <g>
    <line style="fill: none; fill-opacity:0; stroke-width: 2; stroke: #000000" x1="1011.87" y1="545.458" x2="980.41" y2="581.422"/>
    <polygon style="fill: #000000" points="975.472,587.067 978.293,576.248 980.41,581.422 985.82,582.832 "/>
    <polygon style="fill: none; fill-opacity:0; stroke-width: 2; stroke: #000000" points="975.472,587.067 978.293,576.248 980.41,581.422 985.82,582.832 "/>
  </g>
  <g>
    <line style="fill: none; fill-opacity:0; stroke-width: 2; stroke: #000000" x1="865.063" y1="623.75" x2="814.385" y2="620.174"/>
    <polygon style="fill: #000000" points="806.904,619.646 817.231,615.362 814.385,620.174 816.527,625.338 "/>
    <polygon style="fill: none; fill-opacity:0; stroke-width: 2; stroke: #000000" points="806.904,619.646 817.231,615.362 814.385,620.174 816.527,625.338 "/>
  </g>
  <g>
    <ellipse style="fill: #ffffff" cx="309.69" cy="621.74" rx="15" ry="15"/>
    <ellipse style="fill: none; fill-opacity:0; stroke-width: 2; stroke: #000000" cx="309.69" cy="621.74" rx="15" ry="15"/>
    <ellipse style="fill: #000000" cx="309.69" cy="621.74" rx="10" ry="10"/>
  </g>
  <g>
    <line style="fill: none; fill-opacity:0; stroke-width: 2; stroke: #000000" x1="370.5" y1="622.425" x2="334.425" y2="621.885"/>
    <polygon style="fill: #000000" points="326.926,621.773 337,616.923 334.425,621.885 336.85,626.922 "/>
    <polygon style="fill: none; fill-opacity:0; stroke-width: 2; stroke: #000000" points="326.926,621.773 337,616.923 334.425,621.885 336.85,626.922 "/>
  </g>
  <ellipse style="fill: #000000" cx="683.886" cy="196.613" rx="10" ry="10"/>
  <g>
    <line style="fill: none; fill-opacity:0; stroke-width: 2; stroke: #000000" x1="666.59" y1="319.96" x2="662.378" y2="361.419"/>
    <polygon style="fill: #000000" points="661.619,368.88 657.656,358.426 662.378,361.419 667.605,359.437 "/>
    <polygon style="fill: none; fill-opacity:0; stroke-width: 2; stroke: #000000" points="661.619,368.88 657.656,358.426 662.378,361.419 667.605,359.437 "/>
  </g>
  <text font-size="12.8" style="fill: #000000;text-anchor:start;font-family:sans-serif;font-style:normal;font-weight:normal" x="768.285" y="419.613">
    <tspan x="768.285" y="419.613">[yes]</tspan>
  </text>
  <text font-size="12.8" style="fill: #000000;text-anchor:start;font-family:sans-serif;font-style:normal;font-weight:normal" x="519.777" y="471.882">
    <tspan x="519.777" y="471.882">[no]</tspan>
  </text>
  <g>
    <line style="fill: none; fill-opacity:0; stroke-width: 2; stroke: #000000" x1="683.886" y1="206.613" x2="682.738" y2="223.748"/>
    <polygon style="fill: #000000" points="682.236,231.231 677.916,220.919 682.738,223.748 687.893,221.587 "/>
    <polygon style="fill: none; fill-opacity:0; stroke-width: 2; stroke: #000000" points="682.236,231.231 677.916,220.919 682.738,223.748 687.893,221.587 "/>
  </g>
</svg>
