<?xml version="1.0" encoding="UTF-8" standalone="no"?>
<!DOCTYPE svg PUBLIC "-//W3C//DTD SVG 1.0//EN" "http://www.w3.org/TR/2001/PR-SVG-20010719/DTD/svg10.dtd">
<svg width="30cm" height="35cm" viewBox="98 119 582 693" xmlns="http://www.w3.org/2000/svg" xmlns:xlink="http://www.w3.org/1999/xlink">
  <g>
    <rect style="fill: #ffffff" x="319.84" y="641.32" width="360" height="169"/>
    <rect style="fill: none; fill-opacity:0; stroke-width: 2; stroke-dasharray: 4; stroke: #0000ff" x="319.84" y="641.32" width="360" height="169"/>
    <text font-size="12.7998" style="fill: #000000;text-anchor:middle;font-family:sans-serif;font-style:normal;font-weight:normal" x="499.84" y="729.72">
      <tspan x="499.84" y="729.72"></tspan>
    </text>
  </g>
  <g>
    <line style="fill: none; fill-opacity:0; stroke-width: 2; stroke: #000000" x1="110" y1="140" x2="152.397" y2="173.918"/>
    <polygon style="fill: #000000" points="158.254,178.603 147.322,176.261 152.397,173.918 153.569,168.452 "/>
    <polygon style="fill: none; fill-opacity:0; stroke-width: 2; stroke: #000000" points="158.254,178.603 147.322,176.261 152.397,173.918 153.569,168.452 "/>
  </g>
  <text font-size="12.7998" style="fill: #000000;text-anchor:start;font-family:sans-serif;font-style:normal;font-weight:normal" x="374" y="241">
    <tspan x="374" y="241"></tspan>
  </text>
  <g>
    <rect style="fill: #ffffff" x="100" y="180" width="240" height="70"/>
    <rect style="fill: none; fill-opacity:0; stroke-width: 2; stroke: #000000" x="100" y="180" width="240" height="70"/>
    <text font-size="12.7998" style="fill: #000000;text-anchor:middle;font-family:sans-serif;font-style:normal;font-weight:normal" x="220" y="202.9">
      <tspan x="220" y="202.9">getCustomersWithOpenBasket</tspan>
      <tspan x="220" y="218.9">last __days = 2</tspan>
      <tspan x="220" y="234.9">(see configuration gId 70)</tspan>
    </text>
  </g>
  <g>
    <line style="fill: none; fill-opacity:0; stroke-width: 2; stroke: #000000" x1="220" y1="334" x2="220" y2="350.264"/>
    <polygon style="fill: #000000" points="220,357.764 215,347.764 220,350.264 225,347.764 "/>
    <polygon style="fill: none; fill-opacity:0; stroke-width: 2; stroke: #000000" points="220,357.764 215,347.764 220,350.264 225,347.764 "/>
  </g>
  <g>
    <line style="fill: none; fill-opacity:0; stroke-width: 2; stroke: #000000" x1="220" y1="250" x2="220" y2="270.264"/>
    <polygon style="fill: #000000" points="220,277.764 215,267.764 220,270.264 225,267.764 "/>
    <polygon style="fill: none; fill-opacity:0; stroke-width: 2; stroke: #000000" points="220,277.764 215,267.764 220,270.264 225,267.764 "/>
  </g>
  <g>
    <line style="fill: none; fill-opacity:0; stroke-width: 2; stroke: #000000" x1="220" y1="494" x2="220.067" y2="510.264"/>
    <polygon style="fill: #000000" points="220.097,517.764 215.056,507.785 220.067,510.264 225.056,507.744 "/>
    <polygon style="fill: none; fill-opacity:0; stroke-width: 2; stroke: #000000" points="220.097,517.764 215.056,507.785 220.067,510.264 225.056,507.744 "/>
  </g>
  <g>
    <rect style="fill: #ffffff" x="380" y="540" width="280" height="54"/>
    <rect style="fill: none; fill-opacity:0; stroke-width: 2; stroke: #000000" x="380" y="540" width="280" height="54"/>
    <text font-size="12.7998" style="fill: #000000;text-anchor:middle;font-family:sans-serif;font-style:normal;font-weight:normal" x="520" y="562.9">
      <tspan x="520" y="562.9">_GetTranslationForRecoverCard</tspan>
      <tspan x="520" y="578.9">load translation-files @lang</tspan>
    </text>
  </g>
  <g>
    <polygon style="fill: #ffffff" points="220.107,520 260.213,560 220.107,600 180,560 "/>
    <polygon style="fill: none; fill-opacity:0; stroke-width: 2; stroke: #000000" points="220.107,520 260.213,560 220.107,600 180,560 "/>
    <text font-size="12.7998" style="fill: #000000;text-anchor:middle;font-family:sans-serif;font-style:normal;font-weight:normal" x="220.107" y="563.9">
      <tspan x="220.107" y="563.9"></tspan>
    </text>
  </g>
  <g>
    <line style="fill: none; fill-opacity:0; stroke-width: 2; stroke: #000000" x1="260.213" y1="560" x2="370.281" y2="566.432"/>
    <polygon style="fill: #000000" points="377.768,566.87 367.493,571.278 370.281,566.432 368.076,561.295 "/>
    <polygon style="fill: none; fill-opacity:0; stroke-width: 2; stroke: #000000" points="377.768,566.87 367.493,571.278 370.281,566.432 368.076,561.295 "/>
  </g>
  <text font-size="12.7998" style="fill: #000000;text-anchor:start;font-family:sans-serif;font-style:normal;font-weight:normal" x="260" y="540">
    <tspan x="260" y="540">[customerIsIds]</tspan>
  </text>
  <g>
    <line style="fill: none; fill-opacity:0; stroke-width: 2; stroke: #000000" x1="180" y1="560" x2="140.491" y2="569.118"/>
    <polygon style="fill: #000000" points="133.183,570.804 141.802,563.683 140.491,569.118 144.051,573.427 "/>
    <polygon style="fill: none; fill-opacity:0; stroke-width: 2; stroke: #000000" points="133.183,570.804 141.802,563.683 140.491,569.118 144.051,573.427 "/>
  </g>
  <text font-size="12.7998" style="fill: #000000;text-anchor:start;font-family:sans-serif;font-style:normal;font-weight:normal" x="100" y="540">
    <tspan x="100" y="540">[no customers]</tspan>
  </text>
  <g>
    <line style="fill: none; fill-opacity:0; stroke-width: 2; stroke: #000000" x1="520" y1="594" x2="533.918" y2="628.712"/>
    <polygon style="fill: #000000" points="536.709,635.673 528.347,628.252 533.918,628.712 537.629,624.531 "/>
    <polygon style="fill: none; fill-opacity:0; stroke-width: 2; stroke: #000000" points="536.709,635.673 528.347,628.252 533.918,628.712 537.629,624.531 "/>
  </g>
  <g>
    <rect style="fill: #ffc0cb" x="360" y="700" width="80" height="38"/>
    <rect style="fill: none; fill-opacity:0; stroke-width: 2; stroke: #000000" x="360" y="700" width="80" height="38"/>
    <text font-size="12.7998" style="fill: #000000;text-anchor:middle;font-family:sans-serif;font-style:normal;font-weight:normal" x="400" y="722.9">
      <tspan x="400" y="722.9">sendMail</tspan>
    </text>
  </g>
  <g>
    <line style="fill: none; fill-opacity:0; stroke-width: 2; stroke: #000000" x1="360" y1="719" x2="340.079" y2="718.769"/>
    <polygon style="fill: #000000" points="332.58,718.682 342.637,713.799 340.079,718.769 342.521,723.798 "/>
    <polygon style="fill: none; fill-opacity:0; stroke-width: 2; stroke: #000000" points="332.58,718.682 342.637,713.799 340.079,718.769 342.521,723.798 "/>
  </g>
  <g>
    <ellipse style="fill: #ffffff" cx="115" cy="575" rx="15" ry="15"/>
    <ellipse style="fill: none; fill-opacity:0; stroke-width: 2; stroke: #000000" cx="115" cy="575" rx="15" ry="15"/>
    <ellipse style="fill: #000000" cx="115" cy="575" rx="10" ry="10"/>
  </g>
  <ellipse style="fill: #000000" cx="110" cy="130" rx="10" ry="10"/>
  <g>
    <rect style="fill: #ffffff" x="380" y="424.54" width="276.8" height="54"/>
    <rect style="fill: none; fill-opacity:0; stroke-width: 2; stroke: #000000" x="380" y="424.54" width="276.8" height="54"/>
    <text font-size="12.7998" style="fill: #000000;text-anchor:middle;font-family:sans-serif;font-style:normal;font-weight:normal" x="518.4" y="447.44">
      <tspan x="518.4" y="447.44">_GetManufactuersCustomersId</tspan>
      <tspan x="518.4" y="463.44">select domains and search in baskets</tspan>
    </text>
  </g>
  <g>
    <rect style="fill: #ffffff" x="100" y="280" width="240" height="54"/>
    <rect style="fill: none; fill-opacity:0; stroke-width: 2; stroke: #000000" x="100" y="280" width="240" height="54"/>
    <line style="fill: none; fill-opacity:0; stroke-width: 2; stroke: #000000" x1="124" y1="280" x2="124" y2="334"/>
    <line style="fill: none; fill-opacity:0; stroke-width: 2; stroke: #000000" x1="316" y1="280" x2="316" y2="334"/>
    <text font-size="12.7998" style="fill: #000000;text-anchor:middle;font-family:sans-serif;font-style:normal;font-weight:normal" x="220" y="295">
      <tspan x="220" y="295">substFilter</tspan>
      <tspan x="220" y="311">_GetCustomerSessions</tspan>
      <tspan x="220" y="327">db or file</tspan>
    </text>
  </g>
  <g>
    <rect style="fill: #ffffff" x="100" y="360" width="240" height="50"/>
    <rect style="fill: none; fill-opacity:0; stroke-width: 2; stroke: #000000" x="100" y="360" width="240" height="50"/>
    <line style="fill: none; fill-opacity:0; stroke-width: 2; stroke: #000000" x1="124" y1="360" x2="124" y2="410"/>
    <line style="fill: none; fill-opacity:0; stroke-width: 2; stroke: #000000" x1="316" y1="360" x2="316" y2="410"/>
    <text font-size="12.7998" style="fill: #000000;text-anchor:middle;font-family:sans-serif;font-style:normal;font-weight:normal" x="220" y="381">
      <tspan x="220" y="381">Substract Filter</tspan>
      <tspan x="220" y="397">_GetCusomersLawFilter</tspan>
    </text>
  </g>
  <g>
    <line style="fill: none; fill-opacity:0; stroke-width: 2; stroke: #000000" x1="380" y1="451.54" x2="346.753" y2="417.013"/>
    <polygon style="fill: #000000" points="341.551,411.611 352.089,415.346 346.753,417.013 344.886,422.282 "/>
    <polygon style="fill: none; fill-opacity:0; stroke-width: 2; stroke: #000000" points="341.551,411.611 352.089,415.346 346.753,417.013 344.886,422.282 "/>
  </g>
  <g>
    <rect style="fill: #ffffff" x="100" y="440" width="240" height="54"/>
    <rect style="fill: none; fill-opacity:0; stroke-width: 2; stroke: #000000" x="100" y="440" width="240" height="54"/>
    <line style="fill: none; fill-opacity:0; stroke-width: 2; stroke: #000000" x1="124" y1="440" x2="124" y2="494"/>
    <line style="fill: none; fill-opacity:0; stroke-width: 2; stroke: #000000" x1="316" y1="440" x2="316" y2="494"/>
    <text font-size="12.7998" style="fill: #000000;text-anchor:middle;font-family:sans-serif;font-style:normal;font-weight:normal" x="220" y="463">
      <tspan x="220" y="463">Substract Filter</tspan>
      <tspan x="220" y="479">_GetCustomersBought</tspan>
    </text>
  </g>
  <g>
    <line style="fill: none; fill-opacity:0; stroke-width: 2; stroke: #000000" x1="220" y1="411.003" x2="220" y2="430.264"/>
    <polygon style="fill: #000000" points="220,437.764 215,427.764 220,430.264 225,427.764 "/>
    <polygon style="fill: none; fill-opacity:0; stroke-width: 2; stroke: #000000" points="220,437.764 215,427.764 220,430.264 225,427.764 "/>
  </g>
  <g>
    <line style="fill: none; fill-opacity:0; stroke-width: 2; stroke: #000000" x1="580.475" y1="734" x2="580.178" y2="750.266"/>
    <polygon style="fill: #000000" points="580.041,757.764 575.224,747.675 580.178,750.266 585.223,747.857 "/>
    <polygon style="fill: none; fill-opacity:0; stroke-width: 2; stroke: #000000" points="580.041,757.764 575.224,747.675 580.178,750.266 585.223,747.857 "/>
  </g>
  <g>
    <rect style="fill: #ffffff" x="500" y="760" width="160" height="38"/>
    <rect style="fill: none; fill-opacity:0; stroke-width: 2; stroke: #000000" x="500" y="760" width="160" height="38"/>
    <text font-size="12.7998" style="fill: #000000;text-anchor:middle;font-family:sans-serif;font-style:normal;font-weight:normal" x="580" y="782.9">
      <tspan x="580" y="782.9">composite Email</tspan>
    </text>
  </g>
  <g>
    <line style="fill: none; fill-opacity:0; stroke-width: 2; stroke: #000000" x1="309.671" y1="715.187" x2="137.988" y2="595.566"/>
    <polygon style="fill: #000000" points="131.835,591.278 142.898,592.893 137.988,595.566 137.181,601.097 "/>
    <polygon style="fill: none; fill-opacity:0; stroke-width: 2; stroke: #000000" points="131.835,591.278 142.898,592.893 137.988,595.566 137.181,601.097 "/>
  </g>
  <g>
    <rect style="fill: #ffffff" x="380" y="295.46" width="276.659" height="54"/>
    <rect style="fill: none; fill-opacity:0; stroke-width: 2; stroke: #000000" x="380" y="295.46" width="276.659" height="54"/>
    <text font-size="12.7998" style="fill: #000000;text-anchor:middle;font-family:sans-serif;font-style:normal;font-weight:normal" x="518.329" y="318.36">
      <tspan x="518.329" y="318.36">_GetCustomersWithStopWordsInBasket</tspan>
      <tspan x="518.329" y="334.36">defined list of bad words in email</tspan>
    </text>
  </g>
  <g>
    <line style="fill: none; fill-opacity:0; stroke-width: 2; stroke: #000000" x1="380" y1="322.46" x2="347.099" y2="353.337"/>
    <polygon style="fill: #000000" points="341.63,358.47 345.501,347.981 347.099,353.337 352.344,355.272 "/>
    <polygon style="fill: none; fill-opacity:0; stroke-width: 2; stroke: #000000" points="341.63,358.47 345.501,347.981 347.099,353.337 352.344,355.272 "/>
  </g>
  <g>
    <rect style="fill: #ffffff" x="380" y="360" width="276.8" height="54"/>
    <rect style="fill: none; fill-opacity:0; stroke-width: 2; stroke: #000000" x="380" y="360" width="276.8" height="54"/>
    <text font-size="12.7998" style="fill: #000000;text-anchor:middle;font-family:sans-serif;font-style:normal;font-weight:normal" x="518.4" y="382.9">
      <tspan x="518.4" y="382.9">_GetSuppliersCustomersId</tspan>
      <tspan x="518.4" y="398.9">selects email addresses from suppliers</tspan>
    </text>
  </g>
  <g>
    <line style="fill: none; fill-opacity:0; stroke-width: 2; stroke: #000000" x1="380" y1="387" x2="349.724" y2="385.486"/>
    <polygon style="fill: #000000" points="342.233,385.112 352.47,380.617 349.724,385.486 351.971,390.605 "/>
    <polygon style="fill: none; fill-opacity:0; stroke-width: 2; stroke: #000000" points="342.233,385.112 352.47,380.617 349.724,385.486 351.971,390.605 "/>
  </g>
  <g>
    <rect style="fill: #ffffff" x="500" y="680" width="160.95" height="54"/>
    <rect style="fill: none; fill-opacity:0; stroke-width: 2; stroke: #000000" x="500" y="680" width="160.95" height="54"/>
    <text font-size="12.7998" style="fill: #000000;text-anchor:middle;font-family:sans-serif;font-style:normal;font-weight:normal" x="580.475" y="702.9">
      <tspan x="580.475" y="702.9">getCustomerProducts</tspan>
      <tspan x="580.475" y="718.9">@lang</tspan>
    </text>
  </g>
  <g>
    <g>
      <rect style="fill: #2278cd" x="527.236" y="637.718" width="6.87751" height="6.87751"/>
      <rect style="fill: none; fill-opacity:0; stroke-width: 1; stroke: #000000" x="527.236" y="637.718" width="6.87751" height="6.87751"/>
    </g>
    <g>
      <rect style="fill: #22a5cd" x="534.103" y="637.749" width="6.87751" height="6.87751"/>
      <rect style="fill: none; fill-opacity:0; stroke-width: 1; stroke: #000000" x="534.103" y="637.749" width="6.87751" height="6.87751"/>
    </g>
    <g>
      <rect style="fill: #11c3f9" x="541.031" y="637.749" width="6.87751" height="6.87751"/>
      <rect style="fill: none; fill-opacity:0; stroke-width: 1; stroke: #000000" x="541.031" y="637.749" width="6.87751" height="6.87751"/>
    </g>
  </g>
  <text font-size="12.7998" style="fill: #000000;text-anchor:start;font-family:sans-serif;font-style:normal;font-weight:normal" x="380" y="657.406">
    <tspan x="380" y="657.406">&lt;&lt;loop customers&gt;&gt;</tspan>
  </text>
  <g>
    <g>
      <rect style="fill: #2278cd" x="309.671" y="715.187" width="6.87751" height="6.87751"/>
      <rect style="fill: none; fill-opacity:0; stroke-width: 1; stroke: #000000" x="309.671" y="715.187" width="6.87751" height="6.87751"/>
    </g>
    <g>
      <rect style="fill: #22a5cd" x="316.537" y="715.218" width="6.87751" height="6.87751"/>
      <rect style="fill: none; fill-opacity:0; stroke-width: 1; stroke: #000000" x="316.537" y="715.218" width="6.87751" height="6.87751"/>
    </g>
    <g>
      <rect style="fill: #11c3f9" x="323.466" y="715.218" width="6.87751" height="6.87751"/>
      <rect style="fill: none; fill-opacity:0; stroke-width: 1; stroke: #000000" x="323.466" y="715.218" width="6.87751" height="6.87751"/>
    </g>
  </g>
  <g>
    <line style="fill: none; fill-opacity:0; stroke-width: 2; stroke: #000000" x1="537.541" y1="644.626" x2="572.961" y2="673.809"/>
    <polygon style="fill: #000000" points="578.749,678.578 567.852,676.078 572.961,673.809 574.211,668.36 "/>
    <polygon style="fill: none; fill-opacity:0; stroke-width: 2; stroke: #000000" points="578.749,678.578 567.852,676.078 572.961,673.809 574.211,668.36 "/>
  </g>
  <g>
    <line style="fill: none; fill-opacity:0; stroke-width: 2; stroke: #000000" x1="500" y1="779" x2="448.039" y2="743.493"/>
    <polygon style="fill: #000000" points="441.846,739.262 452.924,740.775 448.039,743.493 447.282,749.032 "/>
    <polygon style="fill: none; fill-opacity:0; stroke-width: 2; stroke: #000000" points="441.846,739.262 452.924,740.775 448.039,743.493 447.282,749.032 "/>
  </g>
  <g>
    <rect style="fill: #ffffff" x="379.576" y="229.857" width="275.894" height="54"/>
    <rect style="fill: none; fill-opacity:0; stroke-width: 2; stroke-dasharray: 4; stroke: #000000" x="379.576" y="229.857" width="275.894" height="54"/>
    <text font-size="12.7998" style="fill: #000000;text-anchor:middle;font-family:sans-serif;font-style:normal;font-weight:normal" x="517.523" y="252.757">
      <tspan x="517.523" y="252.757">@TODO</tspan>
      <tspan x="517.523" y="268.757">_GetCustomersBlocked</tspan>
    </text>
  </g>
</svg>
