<?xml version="1.0" encoding="UTF-8" standalone="no"?>
<!DOCTYPE svg PUBLIC "-//W3C//DTD SVG 1.0//EN" "http://www.w3.org/TR/2001/PR-SVG-20010719/DTD/svg10.dtd">
<svg width="29cm" height="32cm" viewBox="98 119 563 623" xmlns="http://www.w3.org/2000/svg" xmlns:xlink="http://www.w3.org/1999/xlink">
  <g>
    <line style="fill: none; fill-opacity:0; stroke-width: 2; stroke: #000000" x1="190" y1="140" x2="214.158" y2="172.211"/>
    <polygon style="fill: #000000" points="218.658,178.211 208.658,173.211 214.158,172.211 216.658,167.211 "/>
    <polygon style="fill: none; fill-opacity:0; stroke-width: 2; stroke: #000000" points="218.658,178.211 208.658,173.211 214.158,172.211 216.658,167.211 "/>
  </g>
  <text font-size="12.7998" style="fill: #000000;text-anchor:start;font-family:sans-serif;font-style:normal;font-weight:normal" x="374" y="241">
    <tspan x="374" y="241"></tspan>
  </text>
  <g>
    <rect style="fill: #ffffff" x="100" y="180" width="240" height="70"/>
    <rect style="fill: none; fill-opacity:0; stroke-width: 2; stroke: #000000" x="100" y="180" width="240" height="70"/>
    <text font-size="12.7998" style="fill: #000000;text-anchor:middle;font-family:sans-serif;font-style:normal;font-weight:normal" x="220" y="202.9">
      <tspan x="220" y="202.9">getCustomersWithOpenBasket</tspan>
      <tspan x="220" y="218.9">last __days = 2</tspan>
      <tspan x="220" y="234.9">(see configuration gId 70)</tspan>
    </text>
  </g>
  <g>
    <line style="fill: none; fill-opacity:0; stroke-width: 2; stroke: #000000" x1="220" y1="334" x2="220" y2="350.264"/>
    <polygon style="fill: #000000" points="220,357.764 215,347.764 220,350.264 225,347.764 "/>
    <polygon style="fill: none; fill-opacity:0; stroke-width: 2; stroke: #000000" points="220,357.764 215,347.764 220,350.264 225,347.764 "/>
  </g>
  <g>
    <line style="fill: none; fill-opacity:0; stroke-width: 2; stroke: #000000" x1="220" y1="250" x2="220" y2="270.264"/>
    <polygon style="fill: #000000" points="220,277.764 215,267.764 220,270.264 225,267.764 "/>
    <polygon style="fill: none; fill-opacity:0; stroke-width: 2; stroke: #000000" points="220,277.764 215,267.764 220,270.264 225,267.764 "/>
  </g>
  <g>
    <line style="fill: none; fill-opacity:0; stroke-width: 2; stroke: #000000" x1="220" y1="494" x2="220.067" y2="510.264"/>
    <polygon style="fill: #000000" points="220.097,517.764 215.056,507.785 220.067,510.264 225.056,507.744 "/>
    <polygon style="fill: none; fill-opacity:0; stroke-width: 2; stroke: #000000" points="220.097,517.764 215.056,507.785 220.067,510.264 225.056,507.744 "/>
  </g>
  <g>
    <rect style="fill: #ffffff" x="380" y="540" width="280" height="54"/>
    <rect style="fill: none; fill-opacity:0; stroke-width: 2; stroke: #000000" x="380" y="540" width="280" height="54"/>
    <text font-size="12.7998" style="fill: #000000;text-anchor:middle;font-family:sans-serif;font-style:normal;font-weight:normal" x="520" y="562.9">
      <tspan x="520" y="562.9">_GetTranslationForRecoverCard</tspan>
      <tspan x="520" y="578.9">load translation-files @lang</tspan>
    </text>
  </g>
  <g>
    <polygon style="fill: #ffffff" points="220.107,520 260.213,560 220.107,600 180,560 "/>
    <polygon style="fill: none; fill-opacity:0; stroke-width: 2; stroke: #000000" points="220.107,520 260.213,560 220.107,600 180,560 "/>
    <text font-size="12.7998" style="fill: #000000;text-anchor:middle;font-family:sans-serif;font-style:normal;font-weight:normal" x="220.107" y="563.9">
      <tspan x="220.107" y="563.9"></tspan>
    </text>
  </g>
  <g>
    <line style="fill: none; fill-opacity:0; stroke-width: 2; stroke: #000000" x1="260.213" y1="560" x2="370.281" y2="566.432"/>
    <polygon style="fill: #000000" points="377.768,566.87 367.493,571.278 370.281,566.432 368.076,561.295 "/>
    <polygon style="fill: none; fill-opacity:0; stroke-width: 2; stroke: #000000" points="377.768,566.87 367.493,571.278 370.281,566.432 368.076,561.295 "/>
  </g>
  <text font-size="12.7998" style="fill: #000000;text-anchor:start;font-family:sans-serif;font-style:normal;font-weight:normal" x="260" y="540">
    <tspan x="260" y="540">[customerIsIds]</tspan>
  </text>
  <g>
    <line style="fill: none; fill-opacity:0; stroke-width: 2; stroke: #000000" x1="180" y1="560" x2="121.139" y2="632.444"/>
    <polygon style="fill: #000000" points="116.41,638.265 118.835,627.35 121.139,632.444 126.597,633.656 "/>
    <polygon style="fill: none; fill-opacity:0; stroke-width: 2; stroke: #000000" points="116.41,638.265 118.835,627.35 121.139,632.444 126.597,633.656 "/>
  </g>
  <text font-size="12.7998" style="fill: #000000;text-anchor:start;font-family:sans-serif;font-style:normal;font-weight:normal" x="160" y="620">
    <tspan x="160" y="620">[no customers]</tspan>
  </text>
  <text font-size="12.7998" style="fill: #000000;text-anchor:start;font-family:sans-serif;font-style:normal;font-weight:normal" x="130" y="133">
    <tspan x="130" y="133">START</tspan>
  </text>
  <text font-size="12.7998" style="fill: #000000;text-anchor:start;font-family:sans-serif;font-style:normal;font-weight:normal" x="100" y="700">
    <tspan x="100" y="700">STOP</tspan>
  </text>
  <g>
    <line style="fill: none; fill-opacity:0; stroke-width: 2; stroke: #000000" x1="520" y1="594" x2="520" y2="610.264"/>
    <polygon style="fill: #000000" points="520,617.764 515,607.764 520,610.264 525,607.764 "/>
    <polygon style="fill: none; fill-opacity:0; stroke-width: 2; stroke: #000000" points="520,617.764 515,607.764 520,610.264 525,607.764 "/>
  </g>
  <g>
    <rect style="fill: #ffc0cb" x="220" y="700" width="80" height="40"/>
    <rect style="fill: none; fill-opacity:0; stroke-width: 2; stroke: #000000" x="220" y="700" width="80" height="40"/>
    <text font-size="12.7998" style="fill: #000000;text-anchor:middle;font-family:sans-serif;font-style:normal;font-weight:normal" x="260" y="723.9">
      <tspan x="260" y="723.9">sendMail</tspan>
    </text>
  </g>
  <g>
    <line style="fill: none; fill-opacity:0; stroke-width: 2; stroke: #000000" x1="220" y1="720" x2="137.893" y2="660.7"/>
    <polygon style="fill: #000000" points="131.813,656.309 142.847,658.111 137.893,660.7 136.992,666.217 "/>
    <polygon style="fill: none; fill-opacity:0; stroke-width: 2; stroke: #000000" points="131.813,656.309 142.847,658.111 137.893,660.7 136.992,666.217 "/>
  </g>
  <g>
    <ellipse style="fill: #ffffff" cx="115" cy="655" rx="15" ry="15"/>
    <ellipse style="fill: none; fill-opacity:0; stroke-width: 2; stroke: #000000" cx="115" cy="655" rx="15" ry="15"/>
    <ellipse style="fill: #000000" cx="115" cy="655" rx="10" ry="10"/>
  </g>
  <ellipse style="fill: #000000" cx="190" cy="130" rx="10" ry="10"/>
  <g>
    <rect style="fill: #ffffff" x="380" y="440" width="276.8" height="54"/>
    <rect style="fill: none; fill-opacity:0; stroke-width: 2; stroke: #000000" x="380" y="440" width="276.8" height="54"/>
    <text font-size="12.7998" style="fill: #000000;text-anchor:middle;font-family:sans-serif;font-style:normal;font-weight:normal" x="518.4" y="462.9">
      <tspan x="518.4" y="462.9">_GetManufactuersCustomersId</tspan>
      <tspan x="518.4" y="478.9">select domains and search in baskets</tspan>
    </text>
  </g>
  <g>
    <rect style="fill: #ffffff" x="100" y="280" width="240" height="54"/>
    <rect style="fill: none; fill-opacity:0; stroke-width: 2; stroke: #000000" x="100" y="280" width="240" height="54"/>
    <line style="fill: none; fill-opacity:0; stroke-width: 2; stroke: #000000" x1="124" y1="280" x2="124" y2="334"/>
    <line style="fill: none; fill-opacity:0; stroke-width: 2; stroke: #000000" x1="316" y1="280" x2="316" y2="334"/>
    <text font-size="12.7998" style="fill: #000000;text-anchor:middle;font-family:sans-serif;font-style:normal;font-weight:normal" x="220" y="295">
      <tspan x="220" y="295">substFilter</tspan>
      <tspan x="220" y="311">_GetCustomerSessions</tspan>
      <tspan x="220" y="327">db or file</tspan>
    </text>
  </g>
  <g>
    <rect style="fill: #ffffff" x="100" y="360" width="240" height="50"/>
    <rect style="fill: none; fill-opacity:0; stroke-width: 2; stroke: #000000" x="100" y="360" width="240" height="50"/>
    <line style="fill: none; fill-opacity:0; stroke-width: 2; stroke: #000000" x1="124" y1="360" x2="124" y2="410"/>
    <line style="fill: none; fill-opacity:0; stroke-width: 2; stroke: #000000" x1="316" y1="360" x2="316" y2="410"/>
    <text font-size="12.7998" style="fill: #000000;text-anchor:middle;font-family:sans-serif;font-style:normal;font-weight:normal" x="220" y="381">
      <tspan x="220" y="381">Substract Filter</tspan>
      <tspan x="220" y="397">_GetCusomersLawFilter</tspan>
    </text>
  </g>
  <g>
    <line style="fill: none; fill-opacity:0; stroke-width: 2; stroke: #000000" x1="380" y1="467" x2="345.593" y2="417.97"/>
    <polygon style="fill: #000000" points="341.284,411.83 351.121,417.144 345.593,417.97 342.936,422.888 "/>
    <polygon style="fill: none; fill-opacity:0; stroke-width: 2; stroke: #000000" points="341.284,411.83 351.121,417.144 345.593,417.97 342.936,422.888 "/>
  </g>
  <g>
    <rect style="fill: #ffffff" x="100" y="440" width="240" height="54"/>
    <rect style="fill: none; fill-opacity:0; stroke-width: 2; stroke: #000000" x="100" y="440" width="240" height="54"/>
    <line style="fill: none; fill-opacity:0; stroke-width: 2; stroke: #000000" x1="124" y1="440" x2="124" y2="494"/>
    <line style="fill: none; fill-opacity:0; stroke-width: 2; stroke: #000000" x1="316" y1="440" x2="316" y2="494"/>
    <text font-size="12.7998" style="fill: #000000;text-anchor:middle;font-family:sans-serif;font-style:normal;font-weight:normal" x="220" y="463">
      <tspan x="220" y="463">Substract Filter</tspan>
      <tspan x="220" y="479">_GetCustomersBought</tspan>
    </text>
  </g>
  <g>
    <line style="fill: none; fill-opacity:0; stroke-width: 2; stroke: #000000" x1="220" y1="411.003" x2="220" y2="430.264"/>
    <polygon style="fill: #000000" points="220,437.764 215,427.764 220,430.264 225,427.764 "/>
    <polygon style="fill: none; fill-opacity:0; stroke-width: 2; stroke: #000000" points="220,437.764 215,427.764 220,430.264 225,427.764 "/>
  </g>
  <g>
    <rect style="fill: #ffffff" x="380" y="620" width="280" height="54"/>
    <rect style="fill: none; fill-opacity:0; stroke-width: 2; stroke: #000000" x="380" y="620" width="280" height="54"/>
    <text font-size="12.7998" style="fill: #000000;text-anchor:middle;font-family:sans-serif;font-style:normal;font-weight:normal" x="520" y="642.9">
      <tspan x="520" y="642.9">getCustomerProducts</tspan>
      <tspan x="520" y="658.9">@lang</tspan>
    </text>
  </g>
  <g>
    <line style="fill: none; fill-opacity:0; stroke-width: 2; stroke: #000000" x1="520" y1="674" x2="520" y2="690.264"/>
    <polygon style="fill: #000000" points="520,697.764 515,687.764 520,690.264 525,687.764 "/>
    <polygon style="fill: none; fill-opacity:0; stroke-width: 2; stroke: #000000" points="520,697.764 515,687.764 520,690.264 525,687.764 "/>
  </g>
  <g>
    <rect style="fill: #ffffff" x="380" y="700" width="280" height="38"/>
    <rect style="fill: none; fill-opacity:0; stroke-width: 2; stroke: #000000" x="380" y="700" width="280" height="38"/>
    <text font-size="12.7998" style="fill: #000000;text-anchor:middle;font-family:sans-serif;font-style:normal;font-weight:normal" x="520" y="722.9">
      <tspan x="520" y="722.9">composite Email</tspan>
    </text>
  </g>
  <g>
    <line style="fill: none; fill-opacity:0; stroke-width: 2; stroke: #000000" x1="380" y1="719" x2="309.735" y2="719.878"/>
    <polygon style="fill: #000000" points="302.236,719.972 312.173,714.847 309.735,719.878 312.298,724.847 "/>
    <polygon style="fill: none; fill-opacity:0; stroke-width: 2; stroke: #000000" points="302.236,719.972 312.173,714.847 309.735,719.878 312.298,724.847 "/>
  </g>
  <g>
    <rect style="fill: #ffffff" x="380" y="280" width="280" height="54"/>
    <rect style="fill: none; fill-opacity:0; stroke-width: 2; stroke: #000000" x="380" y="280" width="280" height="54"/>
    <text font-size="12.7998" style="fill: #000000;text-anchor:middle;font-family:sans-serif;font-style:normal;font-weight:normal" x="520" y="302.9">
      <tspan x="520" y="302.9">_GetCustomersWithStopWordsInBasket</tspan>
      <tspan x="520" y="318.9">defined list of bad words in email</tspan>
    </text>
  </g>
  <g>
    <line style="fill: none; fill-opacity:0; stroke-width: 2; stroke: #000000" x1="380" y1="307" x2="345.865" y2="352.229"/>
    <polygon style="fill: #000000" points="341.347,358.215 343.38,347.221 345.865,352.229 351.362,353.245 "/>
    <polygon style="fill: none; fill-opacity:0; stroke-width: 2; stroke: #000000" points="341.347,358.215 343.38,347.221 345.865,352.229 351.362,353.245 "/>
  </g>
  <g>
    <rect style="fill: #ffffff" x="380" y="360" width="276.8" height="54"/>
    <rect style="fill: none; fill-opacity:0; stroke-width: 2; stroke: #000000" x="380" y="360" width="276.8" height="54"/>
    <text font-size="12.7998" style="fill: #000000;text-anchor:middle;font-family:sans-serif;font-style:normal;font-weight:normal" x="518.4" y="382.9">
      <tspan x="518.4" y="382.9">_GetSuppliersCustomersId</tspan>
      <tspan x="518.4" y="398.9">selects email addresses from suppliers</tspan>
    </text>
  </g>
  <g>
    <line style="fill: none; fill-opacity:0; stroke-width: 2; stroke: #000000" x1="380" y1="387" x2="349.724" y2="385.486"/>
    <polygon style="fill: #000000" points="342.233,385.112 352.47,380.617 349.724,385.486 351.971,390.605 "/>
    <polygon style="fill: none; fill-opacity:0; stroke-width: 2; stroke: #000000" points="342.233,385.112 352.47,380.617 349.724,385.486 351.971,390.605 "/>
  </g>
</svg>
