<?xml version="1.0" encoding="UTF-8" standalone="no"?>
<!DOCTYPE svg PUBLIC "-//W3C//DTD SVG 1.0//EN" "http://www.w3.org/TR/2001/PR-SVG-20010719/DTD/svg10.dtd">
<svg width="31cm" height="38cm" viewBox="97 119 607 746" xmlns="http://www.w3.org/2000/svg" xmlns:xlink="http://www.w3.org/1999/xlink">
  <g>
    <rect style="fill: #ffffff" x="323.112" y="694.755" width="360" height="169"/>
    <rect style="fill: none; fill-opacity:0; stroke-width: 2; stroke-dasharray: 4; stroke: #0000ff" x="323.112" y="694.755" width="360" height="169"/>
    <text font-size="12.8" style="fill: #000000;text-anchor:middle;font-family:sans-serif;font-style:normal;font-weight:normal" x="503.112" y="783.155">
      <tspan x="503.112" y="783.155"></tspan>
    </text>
  </g>
  <g>
    <line style="fill: none; fill-opacity:0; stroke-width: 2; stroke: #000000" x1="110" y1="140" x2="152.397" y2="173.918"/>
    <polygon style="fill: #000000" points="158.254,178.603 147.322,176.261 152.397,173.918 153.569,168.452 "/>
    <polygon style="fill: none; fill-opacity:0; stroke-width: 2; stroke: #000000" points="158.254,178.603 147.322,176.261 152.397,173.918 153.569,168.452 "/>
  </g>
  <text font-size="12.8" style="fill: #000000;text-anchor:start;font-family:sans-serif;font-style:normal;font-weight:normal" x="374" y="241">
    <tspan x="374" y="241"></tspan>
  </text>
  <g>
    <rect style="fill: #ffffff" x="100" y="180" width="240" height="70"/>
    <rect style="fill: none; fill-opacity:0; stroke-width: 2; stroke: #000000" x="100" y="180" width="240" height="70"/>
    <text font-size="12.8" style="fill: #000000;text-anchor:middle;font-family:sans-serif;font-style:normal;font-weight:normal" x="220" y="202.9">
      <tspan x="220" y="202.9">getCustomersWithOpenBasket</tspan>
      <tspan x="220" y="218.9">last __days = 2</tspan>
      <tspan x="220" y="234.9">(see configuration gId 70)</tspan>
    </text>
  </g>
  <g>
    <line style="fill: none; fill-opacity:0; stroke-width: 2; stroke: #000000" x1="240.72" y1="339.819" x2="235.08" y2="365.81"/>
    <polygon style="fill: #000000" points="233.489,373.139 230.724,362.306 235.08,365.81 240.496,364.427 "/>
    <polygon style="fill: none; fill-opacity:0; stroke-width: 2; stroke: #000000" points="233.489,373.139 230.724,362.306 235.08,365.81 240.496,364.427 "/>
  </g>
  <g>
    <line style="fill: none; fill-opacity:0; stroke-width: 2; stroke: #000000" x1="220" y1="250" x2="233.684" y2="263.089"/>
    <polygon style="fill: #000000" points="239.104,268.273 228.421,264.974 233.684,263.089 235.334,257.748 "/>
    <polygon style="fill: none; fill-opacity:0; stroke-width: 2; stroke: #000000" points="239.104,268.273 228.421,264.974 233.684,263.089 235.334,257.748 "/>
  </g>
  <g>
    <line style="fill: none; fill-opacity:0; stroke-width: 2; stroke: #000000" x1="231.616" y1="496.389" x2="224.413" y2="563.754"/>
    <polygon style="fill: #000000" points="223.616,571.211 219.707,560.737 224.413,563.754 229.651,561.8 "/>
    <polygon style="fill: none; fill-opacity:0; stroke-width: 2; stroke: #000000" points="223.616,571.211 219.707,560.737 224.413,563.754 229.651,561.8 "/>
  </g>
  <g>
    <rect style="fill: #ffffff" x="383.272" y="593.435" width="280" height="54"/>
    <rect style="fill: none; fill-opacity:0; stroke-width: 2; stroke: #000000" x="383.272" y="593.435" width="280" height="54"/>
    <text font-size="12.8" style="fill: #000000;text-anchor:middle;font-family:sans-serif;font-style:normal;font-weight:normal" x="523.272" y="616.335">
      <tspan x="523.272" y="616.335">_GetTranslationForRecoverCard</tspan>
      <tspan x="523.272" y="632.335">load translation-files @lang</tspan>
    </text>
  </g>
  <g>
    <polygon style="fill: #ffffff" points="223.378,573.435 263.485,613.435 223.378,653.435 183.272,613.435 "/>
    <polygon style="fill: none; fill-opacity:0; stroke-width: 2; stroke: #000000" points="223.378,573.435 263.485,613.435 223.378,653.435 183.272,613.435 "/>
    <text font-size="12.8" style="fill: #000000;text-anchor:middle;font-family:sans-serif;font-style:normal;font-weight:normal" x="223.378" y="617.335">
      <tspan x="223.378" y="617.335"></tspan>
    </text>
  </g>
  <g>
    <line style="fill: none; fill-opacity:0; stroke-width: 2; stroke: #000000" x1="263.485" y1="613.435" x2="373.552" y2="619.867"/>
    <polygon style="fill: #000000" points="381.039,620.304 370.765,624.713 373.552,619.867 371.348,614.73 "/>
    <polygon style="fill: none; fill-opacity:0; stroke-width: 2; stroke: #000000" points="381.039,620.304 370.765,624.713 373.552,619.867 371.348,614.73 "/>
  </g>
  <text font-size="12.8" style="fill: #000000;text-anchor:start;font-family:sans-serif;font-style:normal;font-weight:normal" x="263.272" y="593.435">
    <tspan x="263.272" y="593.435">[customerIsIds]</tspan>
  </text>
  <g>
    <line style="fill: none; fill-opacity:0; stroke-width: 2; stroke: #000000" x1="183.272" y1="613.435" x2="143.762" y2="622.552"/>
    <polygon style="fill: #000000" points="136.454,624.239 145.074,617.118 143.762,622.552 147.323,626.862 "/>
    <polygon style="fill: none; fill-opacity:0; stroke-width: 2; stroke: #000000" points="136.454,624.239 145.074,617.118 143.762,622.552 147.323,626.862 "/>
  </g>
  <text font-size="12.8" style="fill: #000000;text-anchor:start;font-family:sans-serif;font-style:normal;font-weight:normal" x="103.272" y="593.435">
    <tspan x="103.272" y="593.435">[no customers]</tspan>
  </text>
  <g>
    <line style="fill: none; fill-opacity:0; stroke-width: 2; stroke: #000000" x1="523.272" y1="647.435" x2="537.189" y2="682.146"/>
    <polygon style="fill: #000000" points="539.98,689.107 531.618,681.686 537.189,682.146 540.899,677.965 "/>
    <polygon style="fill: none; fill-opacity:0; stroke-width: 2; stroke: #000000" points="539.98,689.107 531.618,681.686 537.189,682.146 540.899,677.965 "/>
  </g>
  <g>
    <rect style="fill: #ffc0cb" x="363.272" y="753.435" width="80" height="38"/>
    <rect style="fill: none; fill-opacity:0; stroke-width: 2; stroke: #000000" x="363.272" y="753.435" width="80" height="38"/>
    <text font-size="12.8" style="fill: #000000;text-anchor:middle;font-family:sans-serif;font-style:normal;font-weight:normal" x="403.272" y="776.335">
      <tspan x="403.272" y="776.335">sendMail</tspan>
    </text>
  </g>
  <g>
    <line style="fill: none; fill-opacity:0; stroke-width: 2; stroke: #000000" x1="363.272" y1="772.435" x2="343.35" y2="772.204"/>
    <polygon style="fill: #000000" points="335.851,772.118 345.908,767.234 343.35,772.204 345.792,777.233 "/>
    <polygon style="fill: none; fill-opacity:0; stroke-width: 2; stroke: #000000" points="335.851,772.118 345.908,767.234 343.35,772.204 345.792,777.233 "/>
  </g>
  <g>
    <ellipse style="fill: #ffffff" cx="118.272" cy="628.435" rx="15" ry="15"/>
    <ellipse style="fill: none; fill-opacity:0; stroke-width: 2; stroke: #000000" cx="118.272" cy="628.435" rx="15" ry="15"/>
    <ellipse style="fill: #000000" cx="118.272" cy="628.435" rx="10" ry="10"/>
  </g>
  <ellipse style="fill: #000000" cx="110" cy="130" rx="10" ry="10"/>
  <g>
    <rect style="fill: #ffffff" x="423.62" y="449.622" width="276.8" height="54"/>
    <rect style="fill: none; fill-opacity:0; stroke-width: 2; stroke: #000000" x="423.62" y="449.622" width="276.8" height="54"/>
    <text font-size="12.8" style="fill: #000000;text-anchor:middle;font-family:sans-serif;font-style:normal;font-weight:normal" x="562.02" y="472.522">
      <tspan x="562.02" y="472.522">_GetManufactuersCustomersId</tspan>
      <tspan x="562.02" y="488.522">select domains and search in baskets</tspan>
    </text>
  </g>
  <g>
    <rect style="fill: #ffffff" x="100.47" y="269.819" width="280.5" height="70"/>
    <rect style="fill: none; fill-opacity:0; stroke-width: 2; stroke: #000000" x="100.47" y="269.819" width="280.5" height="70"/>
    <line style="fill: none; fill-opacity:0; stroke-width: 2; stroke: #000000" x1="128.52" y1="269.819" x2="128.52" y2="339.819"/>
    <line style="fill: none; fill-opacity:0; stroke-width: 2; stroke: #000000" x1="352.92" y1="269.819" x2="352.92" y2="339.819"/>
    <text font-size="12.8" style="fill: #000000;text-anchor:middle;font-family:sans-serif;font-style:normal;font-weight:normal" x="240.72" y="284.819">
      <tspan x="240.72" y="284.819">substFilter</tspan>
      <tspan x="240.72" y="300.819">_GetCustomerSessions</tspan>
      <tspan x="240.72" y="316.819">db or file</tspan>
      <tspan x="240.72" y="332.819">_GetMailAddressesByCustomersId</tspan>
    </text>
  </g>
  <g>
    <line style="fill: none; fill-opacity:0; stroke-width: 2; stroke: #000000" x1="423.62" y1="476.622" x2="372.244" y2="411.47"/>
    <polygon style="fill: #000000" points="367.6,405.58 377.718,410.337 372.244,411.47 369.866,416.529 "/>
    <polygon style="fill: none; fill-opacity:0; stroke-width: 2; stroke: #000000" points="367.6,405.58 377.718,410.337 372.244,411.47 369.866,416.529 "/>
  </g>
  <g>
    <line style="fill: none; fill-opacity:0; stroke-width: 2; stroke: #000000" x1="233.015" y1="413.324" x2="231.918" y2="448.657"/>
    <polygon style="fill: #000000" points="231.686,456.154 226.998,446.003 231.918,448.657 236.994,446.313 "/>
    <polygon style="fill: none; fill-opacity:0; stroke-width: 2; stroke: #000000" points="231.686,456.154 226.998,446.003 231.918,448.657 236.994,446.313 "/>
  </g>
  <g>
    <line style="fill: none; fill-opacity:0; stroke-width: 2; stroke: #000000" x1="583.747" y1="787.435" x2="583.449" y2="803.7"/>
    <polygon style="fill: #000000" points="583.312,811.199 578.496,801.11 583.449,803.7 588.494,801.292 "/>
    <polygon style="fill: none; fill-opacity:0; stroke-width: 2; stroke: #000000" points="583.312,811.199 578.496,801.11 583.449,803.7 588.494,801.292 "/>
  </g>
  <g>
    <rect style="fill: #ffffff" x="503.272" y="813.435" width="160" height="38"/>
    <rect style="fill: none; fill-opacity:0; stroke-width: 2; stroke: #000000" x="503.272" y="813.435" width="160" height="38"/>
    <text font-size="12.8" style="fill: #000000;text-anchor:middle;font-family:sans-serif;font-style:normal;font-weight:normal" x="583.272" y="836.335">
      <tspan x="583.272" y="836.335">composite Email</tspan>
    </text>
  </g>
  <g>
    <line style="fill: none; fill-opacity:0; stroke-width: 2; stroke: #000000" x1="312.942" y1="768.623" x2="141.26" y2="649.001"/>
    <polygon style="fill: #000000" points="135.106,644.713 146.169,646.328 141.26,649.001 140.453,654.532 "/>
    <polygon style="fill: none; fill-opacity:0; stroke-width: 2; stroke: #000000" points="135.106,644.713 146.169,646.328 141.26,649.001 140.453,654.532 "/>
  </g>
  <g>
    <rect style="fill: #ffffff" x="423.62" y="316.18" width="276.659" height="54"/>
    <rect style="fill: none; fill-opacity:0; stroke-width: 2; stroke: #000000" x="423.62" y="316.18" width="276.659" height="54"/>
    <text font-size="12.8" style="fill: #000000;text-anchor:middle;font-family:sans-serif;font-style:normal;font-weight:normal" x="561.95" y="339.08">
      <tspan x="561.95" y="339.08">_GetCustomersWithStopWordsInBasket</tspan>
      <tspan x="561.95" y="355.08">defined list of bad words in email</tspan>
    </text>
  </g>
  <g>
    <line style="fill: none; fill-opacity:0; stroke-width: 2; stroke: #000000" x1="423.62" y1="343.18" x2="374.096" y2="379.107"/>
    <polygon style="fill: #000000" points="368.025,383.511 373.183,373.592 374.096,379.107 379.056,381.687 "/>
    <polygon style="fill: none; fill-opacity:0; stroke-width: 2; stroke: #000000" points="368.025,383.511 373.183,373.592 374.096,379.107 379.056,381.687 "/>
  </g>
  <g>
    <rect style="fill: #ffffff" x="425.801" y="382.901" width="276.8" height="54"/>
    <rect style="fill: none; fill-opacity:0; stroke-width: 2; stroke: #000000" x="425.801" y="382.901" width="276.8" height="54"/>
    <text font-size="12.8" style="fill: #000000;text-anchor:middle;font-family:sans-serif;font-style:normal;font-weight:normal" x="564.201" y="405.801">
      <tspan x="564.201" y="405.801">_GetSuppliersCustomersId</tspan>
      <tspan x="564.201" y="421.801">selects email addresses from suppliers</tspan>
    </text>
  </g>
  <g>
    <line style="fill: none; fill-opacity:0; stroke-width: 2; stroke: #000000" x1="425.801" y1="409.901" x2="375.635" y2="396.787"/>
    <polygon style="fill: #000000" points="368.379,394.89 379.318,392.582 375.635,396.787 376.789,402.257 "/>
    <polygon style="fill: none; fill-opacity:0; stroke-width: 2; stroke: #000000" points="368.379,394.89 379.318,392.582 375.635,396.787 376.789,402.257 "/>
  </g>
  <g>
    <rect style="fill: #ffffff" x="503.272" y="733.435" width="160.95" height="54"/>
    <rect style="fill: none; fill-opacity:0; stroke-width: 2; stroke: #000000" x="503.272" y="733.435" width="160.95" height="54"/>
    <text font-size="12.8" style="fill: #000000;text-anchor:middle;font-family:sans-serif;font-style:normal;font-weight:normal" x="583.747" y="756.335">
      <tspan x="583.747" y="756.335">getCustomerProducts</tspan>
      <tspan x="583.747" y="772.335">@lang</tspan>
    </text>
  </g>
  <g>
    <g>
      <rect style="fill: #2278cd" x="530.508" y="691.153" width="6.87751" height="6.87751"/>
      <rect style="fill: none; fill-opacity:0; stroke-width: 1; stroke: #000000" x="530.508" y="691.153" width="6.87751" height="6.87751"/>
    </g>
    <g>
      <rect style="fill: #22a5cd" x="537.374" y="691.183" width="6.87751" height="6.87751"/>
      <rect style="fill: none; fill-opacity:0; stroke-width: 1; stroke: #000000" x="537.374" y="691.183" width="6.87751" height="6.87751"/>
    </g>
    <g>
      <rect style="fill: #11c3f9" x="544.304" y="691.183" width="6.87751" height="6.87751"/>
      <rect style="fill: none; fill-opacity:0; stroke-width: 1; stroke: #000000" x="544.304" y="691.183" width="6.87751" height="6.87751"/>
    </g>
  </g>
  <text font-size="12.8" style="fill: #000000;text-anchor:start;font-family:sans-serif;font-style:normal;font-weight:normal" x="383.272" y="710.841">
    <tspan x="383.272" y="710.841">&lt;&lt;loop customers&gt;&gt;</tspan>
  </text>
  <g>
    <g>
      <rect style="fill: #2278cd" x="312.942" y="768.623" width="6.87751" height="6.87751"/>
      <rect style="fill: none; fill-opacity:0; stroke-width: 1; stroke: #000000" x="312.942" y="768.623" width="6.87751" height="6.87751"/>
    </g>
    <g>
      <rect style="fill: #22a5cd" x="319.81" y="768.653" width="6.87751" height="6.87751"/>
      <rect style="fill: none; fill-opacity:0; stroke-width: 1; stroke: #000000" x="319.81" y="768.653" width="6.87751" height="6.87751"/>
    </g>
    <g>
      <rect style="fill: #11c3f9" x="326.738" y="768.653" width="6.87751" height="6.87751"/>
      <rect style="fill: none; fill-opacity:0; stroke-width: 1; stroke: #000000" x="326.738" y="768.653" width="6.87751" height="6.87751"/>
    </g>
  </g>
  <g>
    <line style="fill: none; fill-opacity:0; stroke-width: 2; stroke: #000000" x1="540.812" y1="698.06" x2="576.232" y2="727.244"/>
    <polygon style="fill: #000000" points="582.021,732.013 571.124,729.513 576.232,727.244 577.482,721.795 "/>
    <polygon style="fill: none; fill-opacity:0; stroke-width: 2; stroke: #000000" points="582.021,732.013 571.124,729.513 576.232,727.244 577.482,721.795 "/>
  </g>
  <g>
    <line style="fill: none; fill-opacity:0; stroke-width: 2; stroke: #000000" x1="503.272" y1="832.435" x2="451.31" y2="796.928"/>
    <polygon style="fill: #000000" points="445.118,792.696 456.195,794.21 451.31,796.928 450.553,802.467 "/>
    <polygon style="fill: none; fill-opacity:0; stroke-width: 2; stroke: #000000" points="445.118,792.696 456.195,794.21 451.31,796.928 450.553,802.467 "/>
  </g>
  <g>
    <rect style="fill: #ffffff" x="423.196" y="251.668" width="275.894" height="54"/>
    <rect style="fill: none; fill-opacity:0; stroke-width: 2; stroke-dasharray: 4; stroke: #000000" x="423.196" y="251.668" width="275.894" height="54"/>
    <text font-size="12.8" style="fill: #000000;text-anchor:middle;font-family:sans-serif;font-style:normal;font-weight:normal" x="561.143" y="274.568">
      <tspan x="561.143" y="274.568">@TODO ??</tspan>
      <tspan x="561.143" y="290.568">_GetCustomersBlocked</tspan>
    </text>
  </g>
  <g>
    <rect style="fill: #ffffff" x="99.8152" y="375.324" width="266.4" height="38"/>
    <rect style="fill: none; fill-opacity:0; stroke-width: 2; stroke: #000000" x="99.8152" y="375.324" width="266.4" height="38"/>
    <text font-size="12.7998" style="fill: #000000;text-anchor:middle;font-family:sans-serif;font-style:normal;font-weight:normal" x="233.015" y="398.224">
      <tspan x="233.015" y="398.224">_GetCustomersWithStopWordsInEmail</tspan>
    </text>
  </g>
  <g>
    <rect style="fill: #ffffff" x="98.4163" y="458.389" width="266.4" height="38"/>
    <rect style="fill: none; fill-opacity:0; stroke-width: 2; stroke: #000000" x="98.4163" y="458.389" width="266.4" height="38"/>
    <text font-size="12.7998" style="fill: #000000;text-anchor:middle;font-family:sans-serif;font-style:normal;font-weight:normal" x="231.616" y="481.289">
      <tspan x="231.616" y="481.289">_GetCustomersBought</tspan>
    </text>
  </g>
</svg>
